<svg xmlns="http://www.w3.org/2000/svg" viewBox="0 0 512 512">
  <defs>
    <linearGradient id="bg" x1="0%" y1="0%" x2="100%" y2="100%">
      <stop offset="0%" style="stop-color:#6366f1"/>
      <stop offset="100%" style="stop-color:#8b5cf6"/>
    </linearGradient>
  </defs>
  <rect width="512" height="512" rx="80" fill="url(#bg)"/>
  <g fill="white">
    <!-- Note icon -->
    <path d="M160 100h192c22 0 40 18 40 40v232c0 22-18 40-40 40H160c-22 0-40-18-40-40V140c0-22 18-40 40-40z" fill-opacity="0.9"/>
    <rect x="180" y="160" width="152" height="16" rx="4" fill="#6366f1"/>
    <rect x="180" y="200" width="120" height="12" rx="3" fill="#a5a5a5"/>
    <rect x="180" y="230" width="140" height="12" rx="3" fill="#a5a5a5"/>
    <rect x="180" y="260" width="100" height="12" rx="3" fill="#a5a5a5"/>
    <!-- AI sparkle -->
    <circle cx="380" cy="380" r="60" fill="#fbbf24"/>
    <path d="M380 340l8 24h24l-20 14 8 24-20-14-20 14 8-24-20-14h24z" fill="white"/>
  </g>
</svg>
